<svg id="Layer_1" data-name="Layer 1" xmlns="http://www.w3.org/2000/svg" xmlns:xlink="http://www.w3.org/1999/xlink" viewBox="0 0 385.65 268.21"><defs><linearGradient id="linear-gradient" x1="129.57" y1="164.91" x2="152.71" y2="164.91" gradientUnits="userSpaceOnUse"><stop offset="0.01" stop-color="#fff"/><stop offset="0.13" stop-color="#fff" stop-opacity="0.69"/><stop offset="1" stop-color="#fff" stop-opacity="0"/></linearGradient><linearGradient id="linear-gradient-2" x1="100.26" y1="125.43" x2="105.82" y2="125.43" xlink:href="#linear-gradient"/><linearGradient id="linear-gradient-3" x1="96.61" y1="121.17" x2="100.26" y2="121.17" xlink:href="#linear-gradient"/><linearGradient id="linear-gradient-4" x1="87.74" y1="119.35" x2="91.39" y2="119.35" xlink:href="#linear-gradient"/><linearGradient id="linear-gradient-5" x1="107.66" y1="133.23" x2="111.32" y2="133.23" xlink:href="#linear-gradient"/><linearGradient id="linear-gradient-6" x1="130.95" y1="175.33" x2="140.24" y2="175.33" xlink:href="#linear-gradient"/><linearGradient id="linear-gradient-7" x1="319.83" y1="121.05" x2="315.58" y2="221.32" xlink:href="#linear-gradient"/><linearGradient id="linear-gradient-8" x1="257.62" y1="127.08" x2="260.84" y2="127.08" xlink:href="#linear-gradient"/><linearGradient id="linear-gradient-9" x1="260.64" y1="131.05" x2="263.86" y2="131.05" xlink:href="#linear-gradient"/><linearGradient id="linear-gradient-10" x1="300.07" y1="135.8" x2="303.29" y2="135.8" xlink:href="#linear-gradient"/><linearGradient id="linear-gradient-11" x1="259.58" y1="123" x2="261.7" y2="123" xlink:href="#linear-gradient"/><linearGradient id="linear-gradient-12" x1="254.44" y1="121.94" x2="256.56" y2="121.94" xlink:href="#linear-gradient"/><linearGradient id="linear-gradient-13" x1="261.19" y1="140.98" x2="263.31" y2="140.98" xlink:href="#linear-gradient"/><linearGradient id="linear-gradient-14" x1="255.5" y1="148.87" x2="257.62" y2="148.87" xlink:href="#linear-gradient"/><linearGradient id="linear-gradient-15" x1="2519.89" y1="992.02" x2="2523.11" y2="992.02" gradientTransform="translate(2806.91 1089.75) rotate(179.55)" xlink:href="#linear-gradient"/><linearGradient id="linear-gradient-16" x1="2508.58" y1="991.09" x2="2510.69" y2="991.09" gradientTransform="translate(2806.91 1089.75) rotate(179.55)" xlink:href="#linear-gradient"/><linearGradient id="linear-gradient-17" x1="2530.02" y1="998.19" x2="2532.14" y2="998.19" gradientTransform="translate(2806.91 1089.75) rotate(179.55)" xlink:href="#linear-gradient"/><linearGradient id="linear-gradient-18" x1="2503.44" y1="990.03" x2="2505.55" y2="990.03" gradientTransform="translate(2806.91 1089.75) rotate(179.55)" xlink:href="#linear-gradient"/><linearGradient id="linear-gradient-19" x1="2514.98" y1="998.07" x2="2517.1" y2="998.07" gradientTransform="translate(2806.91 1089.75) rotate(179.55)" xlink:href="#linear-gradient"/></defs><title>4</title><path d="M423.21,227.13c-2.39,25.22-12.06,49-33,62.29-32.16,20.44-74.66,2.92-112.91-3.51-30-5-60.9-2.67-90.62,3.33-16.93,3.41-33.78,8-51.11,8.15-39,.3-77.14-24.57-91.26-59.52s-3.23-77.57,26-102c6.16-5.15,13.26-9.81,16.78-16.89,3.69-7.42,2.75-16.11,3.66-24.31,3-26.86,26.72-48.21,53.33-57s55.74-7.44,83.88-4.74c41,3.93,80,0,118,16.58,6.64,2.88,13.22,6.16,18.54,10.94,9.53,8.56,14,20.9,18.89,32.49,9.27,22,21.11,42.94,30,65.05C421,177,425.53,202.74,423.21,227.13Z" transform="translate(-38.17 -30.83)" fill="#2962ff" opacity="0.18" style="isolation:isolate"/><path d="M228,175.33a71.31,71.31,0,0,1-94,67.57c-1.75-.58-3.46-1.23-5.15-2l-.36-.16c-.81-.35-1.61-.71-2.41-1.09h0c-1.23-.58-2.45-1.2-3.64-1.87l-.21-.11c-.2-.1-.4-.22-.6-.33l-1.43-.83-1.11-.68-1.17-.75-1.53-1-.09-.06-1.69-1.21-.33-.24a70.36,70.36,0,0,1-6.36-5.33c-1.47-1.37-2.88-2.81-4.21-4.3A71.27,71.27,0,1,1,228,175.33Z" transform="translate(-38.17 -30.83)" fill="#2962ff"/><path d="M388.79,175.33a71.22,71.22,0,0,1-71.28,71.27,72.69,72.69,0,0,1-12.69-1.12,71.28,71.28,0,1,1,84-70.15Z" transform="translate(-38.17 -30.83)" fill="#2962ff"/><path d="M174.87,142.68c.68,1.22-.43,2.81-1.42,3.92a42.14,42.14,0,0,0-5,6.85c-1.31,2.27-2,5.26-3.8,7.19a53.34,53.34,0,0,0-9.21,14.43q-4.11,9-7.67,18.2c-.53,1.36-1.05,2.72-1.55,4.09s-1,2.64-1.45,4c-.38,1.08-.76,2.17-1.13,3.25-.11.31-.22.64-.33,1-.28.81-.55,1.63-.81,2.44s-.51,1.55-.76,2.32l-.24.74c-.13.41-.25.83-.36,1.25-.63,2.3-1.06,4.73-1.85,6.9-1,2.72-3,5.34-4.32,7.94A134,134,0,0,0,128.83,241l-.36-.16a70.89,70.89,0,0,1-20.58-13.52c-1.47-1.37-2.88-2.81-4.21-4.3a86.13,86.13,0,0,0,4.9-10.26c1.51-3.79,3.73-7,5.23-10.74a134.46,134.46,0,0,0,4.63-13.65q1-3.48,1.74-7c.28-1.27,1.72-5.07,1.2-6.23-1-2.29-2-4.57-3-6.86a47.2,47.2,0,0,1-2.81-7.37c-1.41-5.36-1-11.1-2.54-16.43a31.31,31.31,0,0,0-3.83-8,4,4,0,0,1-.83-2.1,2.47,2.47,0,0,1,1.67-2.11,5.34,5.34,0,0,1,2.81-.14l.46.07c7.21,1.41,10.41,7.93,13.52,13.91.68,1.28,1.53,2.71,3,3a3.22,3.22,0,0,0,2.58-.75,9.08,9.08,0,0,0,1.78-2l0-.06c1.36-1.88,2.72-3.78,4.07-5.68,3.43-4.82,8-8.69,12.2-12.87,3.24-3.21,6.83-6.58,11-8a12.33,12.33,0,0,1,3.47-.72.85.85,0,0,1,.59.12.8.8,0,0,1,.12.74,10,10,0,0,1-2.71,4.31,95.68,95.68,0,0,0-10.08,13.64c3.22-1.75,5.64-4.56,8-7.4s4.9-5.87,8.17-7.71a4.49,4.49,0,0,1,2.16-.68h.08a1.77,1.77,0,0,1,1.7,1.39,2.65,2.65,0,0,1-.52,1.58q-5.13,8.72-10.26,17.41a79.69,79.69,0,0,1,9.13-9.78c.54-.49,1.08-1,1.64-1.45,1.11-1,2.47-1.93,3.89-1.75.09,0,.2,0,.29.06.42,2.65-1.37,5.06-3,7.19a93.75,93.75,0,0,0-7.31,11.32,31.44,31.44,0,0,1,5.92-4.39c.61-.37,1.26-.71,1.91-1Z" transform="translate(-38.17 -30.83)" fill="#f38a6b"/><path d="M174.87,142.68c.68,1.22-.43,2.81-1.42,3.92a42.14,42.14,0,0,0-5,6.85c-1.31,2.27-2,5.26-3.8,7.19a53.34,53.34,0,0,0-9.21,14.43q-4.11,9-7.67,18.2c-.53,1.36-1.05,2.72-1.55,4.09s-1,2.64-1.45,4c-.38,1.08-.76,2.16-1.13,3.25-.11.31-.22.64-.33,1-1.73,5-2.3,10.09-3.94,15.18a149.2,149.2,0,0,0-4.69,18.65c-.21,1.17-.42,2.36-.68,3.53-1.75-.58-3.46-1.23-5.15-2l-.36-.16c-.81-.35-1.61-.71-2.41-1.09h0a16,16,0,0,0-3.64-1.87l-.21-.11-.27-.14-.33-.19-1.43-.83-1.11-.68-1.17-.75c-.51-.32-1-.66-1.53-1l-.09-.06-1.69-1.21-.33-.24c-1.49-1.06-6.59-4.69-6.36-5.33,2.59-7.41,5.13-14.89,8.32-22a132.45,132.45,0,0,0,10.07-32.81c-1-2.29-2-4.57-3-6.86a50.13,50.13,0,0,1-2.81-7.37c-1.4-5.36-1-11.1-2.53-16.43a32,32,0,0,0-3.82-8.05,4.85,4.85,0,0,1-.8-1.67c7.21,1.41,10.41,7.93,13.52,13.91.68,1.28,1.53,2.71,3,3a3.22,3.22,0,0,0,2.58-.75,9.08,9.08,0,0,0,1.78-2,2,2,0,0,0,.54.17,3.23,3.23,0,0,0,2.59-.76,9.5,9.5,0,0,0,1.81-2.08c1.36-1.88,2.72-3.78,4.06-5.68,3.43-4.82,8-8.7,12.22-12.87a50.81,50.81,0,0,1,6.12-5.41,12.33,12.33,0,0,1,3.47-.72.85.85,0,0,1,.59.12.8.8,0,0,1,.12.74,10,10,0,0,1-2.71,4.31,95.68,95.68,0,0,0-10.08,13.64c3.22-1.75,5.64-4.56,8-7.4-1.08,1.56-2.13,3.17-3.12,4.79,5.55-3,8.68-9.18,13.45-13.18h.08a1.77,1.77,0,0,1,1.7,1.39,2.65,2.65,0,0,1-.52,1.58q-5.13,8.72-10.26,17.41a79.69,79.69,0,0,1,9.13-9.78c-1.42,2.39-2.83,4.77-4.23,7.17a81.08,81.08,0,0,1,9.76-10.37c.09,0,.2,0,.29.06.42,2.65-1.37,5.06-3,7.19a93.75,93.75,0,0,0-7.31,11.32,31.44,31.44,0,0,1,5.92-4.39c-.36.59-.7,1.18-1,1.78A31.32,31.32,0,0,1,174.87,142.68Z" transform="translate(-38.17 -30.83)" fill="#e26f54"/><path d="M132.17,148.82c-.58-.62-1.74-.14-2,.67a2.72,2.72,0,0,0,.64,2.37,6.79,6.79,0,0,0,2.74,2.15,1.41,1.41,0,0,1,.61.4c.48.67-.55,1.34-1.23,1.82a2.82,2.82,0,0,0,2.16,5.07,3.85,3.85,0,0,0,.56,4.91,6.88,6.88,0,0,0,5,1.72,6.83,6.83,0,0,0-.57,7.26,5.6,5.6,0,0,0,6.61,2.51,3.41,3.41,0,0,0,6,2.5l-9.47-21.77c-1-2.31-2.06-4.68-3.91-6.39-2.15-2-5.08-2.79-7.9-3.54-.67-.18-1.58-.25-1.86.38" transform="translate(-38.17 -30.83)" fill="url(#linear-gradient)"/><path d="M218.76,210.36a71.47,71.47,0,0,1-22.3,24.12c-1.29-3.66-2.33-7.42-3.63-11.08-2.87-8.09-10-22.41-19.56-23.94a43.29,43.29,0,0,0-5-.2c-5.24-.21-10.16-2.4-15.05-4.31a154.74,154.74,0,0,0-22.77-6.9c-1.54-.34-3.31-.82-3.95-2.27a3.13,3.13,0,0,1,.49-3.05,6,6,0,0,1,2.61-1.85c3.94-1.61,8.4-.9,12.59-.16l9.9,1.75c-.93-1.39-2-2.7-2.93-4.06a38,38,0,0,1-2.06-4.43c-5.29-10.73-12.88-20.09-18.62-30.56-.68-1.23-.63-4,.67-4.9,1.48-1,3.34.42,4.54,1.73q6.84,7.49,13.11,15.46A72.4,72.4,0,0,0,138,144.33c-1-1.08-2.06-2.13-3-3.26a57.16,57.16,0,0,1-4.85-7c-.75-1.2-1.5-2.77-.68-3.92a2.47,2.47,0,0,1,2.92-.62,7.37,7.37,0,0,1,2.48,2l5.76,6.31c4.57,5,9.14,10,13.83,14.93-1.57-2.8-4.08-4.73-6.13-7.2-3.61-4.35-5.47-5.79-9-10.1-.85-1.05-2-2.51-1.22-3.62a2.33,2.33,0,0,1,2.1-.88,5.11,5.11,0,0,1,2.21.81,27.87,27.87,0,0,1,4.23,3.36c3.74,3.4,10.56,10,13.63,14.05-1.07-1.79-5.18-6.77-6.25-8.56-.25-.42-.46-1-.07-1.32a.88.88,0,0,1,.53-.11c1.63,0,2.95,1.27,4.13,2.39a125.08,125.08,0,0,0,12.59,10.5c3.06,2.22,5.11,5.2,7.91,7.76,1.66,1.52,3.32,3,4.88,4.67,1.91,2,3.66,4.15,5.39,6.31,8,10,16.12,19.95,23.57,30.34.93,1.3,1.95,2.78,3,4.39S217.85,208.7,218.76,210.36Z" transform="translate(-38.17 -30.83)" fill="#f38a6b"/><circle cx="103.04" cy="125.43" r="2.78" fill="url(#linear-gradient-2)"/><circle cx="98.44" cy="121.17" r="1.83" fill="url(#linear-gradient-3)"/><circle cx="89.57" cy="119.35" r="1.83" fill="url(#linear-gradient-4)"/><circle cx="109.49" cy="133.23" r="1.83" fill="url(#linear-gradient-5)"/><path d="M131.1,173a2.18,2.18,0,0,0,1.72.75l2.28.26a1.67,1.67,0,0,1,.93.31,1.56,1.56,0,0,1,.4.8c.41,1.58.64,3.27,1.65,4.55a2,2,0,0,0,1,.74,1,1,0,0,0,1.09-.44,1.11,1.11,0,0,0-.27-1.11c-.26-.3-.6-.52-.88-.8a3.66,3.66,0,0,1-.89-2.61,14.69,14.69,0,0,1,.47-2.78C139.54,168.25,129.61,170.56,131.1,173Z" transform="translate(-38.17 -30.83)" fill="url(#linear-gradient-6)"/><path d="M365.18,170.06a13.29,13.29,0,0,1-3.88,2.65A56,56,0,0,0,345.11,186c-1.41,1.67-2.58,3.44-4.78,4.09-1,.3-8.3.19-8.64-1.29-.08,11.59-7.43,18.87-13.37,28.21-5.65,8.88-10.62,18.33-13.5,28.46a71.06,71.06,0,0,1-31.16-14c3.72-6.19,9.93-12.31,13.69-18.4,4.3-6.93,5.14-14.87,7.73-22.69a36.05,36.05,0,0,0,.86-21.16c-1.37-4.75-3.78-9.28-5.64-13.86q-3-7.44-6.05-14.89c-.73-1.79-1.46-3.77-.85-5.61.18-.52.61-1.09,1.16-1a1.4,1.4,0,0,1,.77.59c2.48,3.07,4.93,5.94,7.45,8.84a19.78,19.78,0,0,0,3.39,2.73,13.2,13.2,0,0,0,2,1.33c1,.48,1.06.33,1.18-.83a96.05,96.05,0,0,0-.19-18.88c-.2-2.06-.46-4.11-.52-6.18a32.91,32.91,0,0,1,.29-5.34,4.88,4.88,0,0,1,1-2.68,1.88,1.88,0,0,1,2.57-.36,2.56,2.56,0,0,1,.62,1.1c2.45,6.69,3.18,13.93,5.85,20.53.63,1.55,1.75,3.3,3.42,3.18a2.85,2.85,0,0,0,2.26-1.84,8.5,8.5,0,0,0,.51-3,165.19,165.19,0,0,1,2.48-20.91,5.69,5.69,0,0,1,.8-2.31,2,2,0,0,1,2.13-.83,2.77,2.77,0,0,1,1.42,1.87c1.87,5.35,2.21,11.11,2.28,16.78a29.31,29.31,0,0,0,.48,6.28,9.14,9.14,0,0,0,3.12,5.33,2.88,2.88,0,0,0,2.92.58,3.25,3.25,0,0,0,1.25-1.46c2.19-4.2,2.65-20.1,8.88-20.56,1.67-.13,2.44,2,2.54,3.72.58,9.88-2.8,19.53-3.77,29.38a100.11,100.11,0,0,0-.2,13.75c.1,2.43.25,5.7,2.47,7.26s3.29-.09,5.1-1.35c4-2.8,8.95-5.77,13.88-6.49,1.83-.26,4,0,5,1.57A3.88,3.88,0,0,1,365.18,170.06Z" transform="translate(-38.17 -30.83)" fill="#e26f54"/><path d="M295.77,157.35c.2,1.67-.23,3.79-1.85,4.22a4.67,4.67,0,0,0-1.5.39c-.82.57-.43,1.89.24,2.63s1.6,1.41,1.71,2.41l-2.22.06a2.72,2.72,0,0,0,.74,3.08,12,12,0,0,0,2.89,1.76,15.36,15.36,0,0,1,5.41,4.88c2.8-4.52,1.42-10.3,1.26-15.61a2.93,2.93,0,0,1,.18-1.38c.82-1.79,3.6-.73,5.46-1.41,2.3-.86,3.26-4.58,5.7-4.24a4.7,4.7,0,0,1,1.78.84,12.89,12.89,0,0,0,11.51.89,9.87,9.87,0,0,0,8.43,10.35,10.77,10.77,0,0,0-1.64,13.28,34.93,34.93,0,0,1,2.57,3.74c.81,1.69.86,3.68,1.8,5.31s3.46,2.61,4.62,1.13a13.83,13.83,0,0,0-.35-6.67c-.38-1.21-.92-2.46-.61-3.69.19-.7.64-1.3.83-2,.57-2-1.1-4-.85-6.11.12-1,.72-2,.7-3-.05-2.31-3-3.54-3.66-5.74-.58-1.85.45-4.17-.79-5.66-.6-.72-1.63-1-2.11-1.86-.57-1-.11-2.21.17-3.31s.19-2.58-.87-3a6.63,6.63,0,0,1-3.95,1c.37-2.24.14-5.18-2-5.92-1.4-.47-2.87.29-4.24.85s-3.15.85-4.12-.26c-.4-.47-.62-1.16-1.2-1.38a1.88,1.88,0,0,0-1.61.43,15.16,15.16,0,0,0-4.56,4.87c-.88,1.5-2.36,3.47-3.87,2.6a15.68,15.68,0,0,1-.54-2.66c-.21-.88-.88-1.8-1.78-1.76-1.34.08-1.64,1.93-2.57,2.9-1.1,1.17-3,.92-4.59.78C295.17,149.61,295.32,153.56,295.77,157.35Z" transform="translate(-38.17 -30.83)" fill="url(#linear-gradient-7)"/><path d="M370.12,223.41c-8.64,8.56-21.89,17.47-34,20.73a41,41,0,0,1-.78-6,61.06,61.06,0,0,0-8.34-24.7c-3.84-6.65-5.83-11-14.19-13.11-2.53-.63-5.17-1-7.5-2.1-5.41-2.69-7.73-9.09-11.94-13.42-4.68-4.83-11.53-6.92-16.71-11.22-1.55-1.29-3.05-3.33-2.2-5.15s3.31-2,5.28-1.75a39.46,39.46,0,0,1,19.28,7.8c2.22-1.38.88-5.69.52-7.7a78.94,78.94,0,0,0-3.14-10.52c-1.67-5.06-3-10.23-4.24-15.4a31.07,31.07,0,0,1-.79-3.93,5.61,5.61,0,0,1,.84-4.12c1.76-2.18,4.78-.29,6.06,1.43,4.26,5.68,5.43,12.84,10.79,18a62.25,62.25,0,0,0-.09-11.9c-.3-2.86-2.31-7.35-.86-10,.81-1.48,2.81-2.42,4.26-1.55,1.08.65,1.48,2,1.79,3.22,1.11,4.33,3.06,8.67,4.51,12.94a3.16,3.16,0,0,0,.71,1.34c.86.8,2.36.35,3.07-.58a7.21,7.21,0,0,0,1-3.33c.36-2.32.7-10.35,4-10.56,4.85-.31,3.59,15.53,3.94,18.37a11,11,0,0,0,1.4,4.82c.34.52.89,1,1.5.91s.83-.6,1.09-1.06l4.84-8.61c.61-1.08,1.47-2.3,2.7-2.23a2.22,2.22,0,0,1,1.86,1.75,5.56,5.56,0,0,1-.18,2.71c-.95,3.65-2.76,7-3.76,10.65-1.25,4.56-.48,9.12-.92,13.71-.49,5.14,1.33,10.84,3.75,15.32a65.88,65.88,0,0,0,5.39,8C356.2,205.69,361,218,370.12,223.41Z" transform="translate(-38.17 -30.83)" fill="#f38a6b"/><circle cx="259.23" cy="127.08" r="1.61" fill="url(#linear-gradient-8)"/><circle cx="262.25" cy="131.05" r="1.61" fill="url(#linear-gradient-9)"/><circle cx="301.68" cy="135.8" r="1.61" fill="url(#linear-gradient-10)"/><circle cx="260.64" cy="123" r="1.06" fill="url(#linear-gradient-11)"/><circle cx="255.5" cy="121.94" r="1.06" fill="url(#linear-gradient-12)"/><circle cx="262.25" cy="140.98" r="1.06" fill="url(#linear-gradient-13)"/><circle cx="256.56" cy="148.87" r="1.06" fill="url(#linear-gradient-14)"/><circle cx="277.74" cy="117.47" r="1.61" fill="url(#linear-gradient-15)"/><circle cx="289.61" cy="118.31" r="1.06" fill="url(#linear-gradient-16)"/><circle cx="268.11" cy="111.38" r="1.06" fill="url(#linear-gradient-17)"/><circle cx="294.76" cy="119.33" r="1.06" fill="url(#linear-gradient-18)"/><circle cx="283.15" cy="111.38" r="1.06" fill="url(#linear-gradient-19)"/><path d="M357.88,170.14a.63.63,0,0,0-.26.4.67.67,0,0,0,.24.46l.78.85a2.13,2.13,0,0,0,1.42.87,2.2,2.2,0,0,0,1.08-.45l2.95-2a4.76,4.76,0,0,0,1.21-1c1.59-2.15-1.23-2.06-2.47-1.74A11.76,11.76,0,0,0,357.88,170.14Z" transform="translate(-38.17 -30.83)" fill="#f38a6b"/><path d="M338.51,122.09a3.3,3.3,0,0,1,.91-1.34,3.16,3.16,0,0,1,1.65-.49,1.07,1.07,0,0,1,.4,0c.31.12.41.5.46.83a15.9,15.9,0,0,1-.08,5.15.59.59,0,0,1-.69.6c-.85,0-3.49.14-3.83-.74S338.16,122.89,338.51,122.09Z" transform="translate(-38.17 -30.83)" fill="#f38a6b"/><path d="M319.18,112a1.4,1.4,0,0,1,1.14-.66.6.6,0,0,1,.37.11.74.74,0,0,1,.19.27,10.34,10.34,0,0,1,1.24,5.37c-1.11-.15-2.73-.09-3.39-1.21S318.56,112.85,319.18,112Z" transform="translate(-38.17 -30.83)" fill="#f38a6b"/><path d="M300.23,119.61a.43.43,0,0,1-.55-.49,11.66,11.66,0,0,1,.26-4.16c.09-.39.28-.85.68-.93a1,1,0,0,1,.93.52,6.37,6.37,0,0,1,1.21,3.7C302.72,119.69,301.42,119.5,300.23,119.61Z" transform="translate(-38.17 -30.83)" fill="#f38a6b"/><path d="M283.61,138.34a3.85,3.85,0,0,1-.35-1.76,1.36,1.36,0,0,1,1.1-1.25,1.87,1.87,0,0,1,1.44.83c.93,1.08,2.29,2.91,1.05,4.23C285.32,142,284.09,139.64,283.61,138.34Z" transform="translate(-38.17 -30.83)" fill="#f38a6b"/><path d="M132.56,183a5.31,5.31,0,0,0-1.73.22,6.54,6.54,0,0,0-2.7,2.23,1,1,0,0,0-.29.56,8.45,8.45,0,0,1,2.15-1.42,8.72,8.72,0,0,1,4.37-.19.47.47,0,0,1,.34.13.53.53,0,0,1,.08.27l.26,2.88c0-1,.34-3.11-.13-4S133.52,183,132.56,183Z" transform="translate(-38.17 -30.83)" fill="#e26f54"/><path d="M129.91,141.36a6.17,6.17,0,0,0,.74,1l1.59,1.87a.32.32,0,0,0,.13.1.28.28,0,0,0,.17,0,4.4,4.4,0,0,0,1.81-1.5l-1.26.49a1.41,1.41,0,0,1-.48.12,1.13,1.13,0,0,1-.72-.34,8.17,8.17,0,0,1-1.22-1.4c-.19-.25-.42-1.18-.63-1.31C129.42,140,129.77,141.11,129.91,141.36Z" transform="translate(-38.17 -30.83)" fill="#e26f54"/><path d="M133.86,133.31a1.15,1.15,0,0,1-.39.11,1,1,0,0,1-.44-.11,3.53,3.53,0,0,1-1.3-.79,3.16,3.16,0,0,1-.66-1.92c0-.12,0-.3.16-.29a3.83,3.83,0,0,0,.12,1,2.79,2.79,0,0,0,1.66,1.53,1.56,1.56,0,0,0,.67.15c.53,0,1-.54,1.51-.43C135.05,132.92,134.18,133.16,133.86,133.31Z" transform="translate(-38.17 -30.83)" fill="#e26f54"/><path d="M142,134.34a.52.52,0,0,1-.26.1.52.52,0,0,1-.24-.05l-.87-.3a2.61,2.61,0,0,1-1.85-1.54.7.7,0,0,1-.13-.39c0-.13.17-.26.29-.19a2.22,2.22,0,0,0,1.07,1.37,4.23,4.23,0,0,0,1.71.5,1,1,0,0,0,.35,0,1.58,1.58,0,0,0,.42-.24c.2-.14.9-.51.67-.05S142.29,134.18,142,134.34Z" transform="translate(-38.17 -30.83)" fill="#e26f54"/><path d="M157.22,142.53a.16.16,0,0,1-.1,0c-.06,0-.09-.06-.12-.11-.27-.38-.82-.42-1.17-.72a1,1,0,0,1-.26-1.05,2,2,0,0,0,.86,1.74,4.42,4.42,0,0,0,.68.36.25.25,0,0,0,.17,0l.09-.05a3.05,3.05,0,0,0,.49-.38C157.73,142.17,157.41,142.45,157.22,142.53Z" transform="translate(-38.17 -30.83)" fill="#e26f54"/><path d="M179.23,153.2,176.15,160c4.52-4.73,9-6,10.65-2.59,2,4-.69,13.08-6,20.22s-11.21,9.65-13.2,5.62c-1.66-3.36-.07-10.21,3.58-16.54" transform="translate(-38.17 -30.83)" fill="none" stroke="#f8feff" stroke-linecap="round" stroke-linejoin="round" stroke-width="1.88"/><line x1="142.05" y1="129.59" x2="137.97" y2="129.18" fill="none" stroke="#f8feff" stroke-linecap="round" stroke-miterlimit="10" stroke-width="1.88"/><path d="M253.51,151.64s-.71,19.73,6.6,35.62" transform="translate(-38.17 -30.83)" fill="none" stroke="#f8feff" stroke-linecap="round" stroke-linejoin="round" stroke-width="1.88"/><polyline points="219.73 125.17 215.37 118.58 210.74 125.63" fill="none" stroke="#f8feff" stroke-linecap="round" stroke-linejoin="round" stroke-width="1.88"/><path d="M270,183.57s-1.44-19.69-10.43-34.69" transform="translate(-38.17 -30.83)" fill="none" stroke="#f8feff" stroke-linecap="round" stroke-linejoin="round" stroke-width="1.88"/><polyline points="226.98 148.89 232.03 154.97 235.86 147.46" fill="none" stroke="#f8feff" stroke-linecap="round" stroke-linejoin="round" stroke-width="1.88"/></svg>